<?xml version="1.0" standalone="no"?>
<!DOCTYPE svg PUBLIC "-//W3C//DTD SVG 20010904//EN"
 "http://www.w3.org/TR/2001/REC-SVG-20010904/DTD/svg10.dtd">
<svg version="1.0" xmlns="http://www.w3.org/2000/svg"
 width="192.000000pt" height="192.000000pt" viewBox="0 0 192.000000 192.000000"
 preserveAspectRatio="xMidYMid meet">

<g transform="translate(0.000000,192.000000) scale(0.100000,-0.100000)"
fill="#000000" stroke="none">
<path d="M1908 960 c-2 -528 0 -960 5 -960 4 0 7 432 7 960 0 528 -2 960 -5
960 -3 0 -6 -432 -7 -960z"/>
<path d="M953 1798 c-4 -7 -42 -44 -83 -83 -152 -141 -299 -282 -449 -429
l-154 -151 179 -6 c197 -6 252 0 328 34 68 32 112 70 153 134 18 29 37 53 41
53 5 0 15 -15 24 -32 44 -91 151 -166 267 -188 65 -12 401 -13 401 -1 0 10
-578 581 -647 639 -38 32 -54 39 -60 30z"/>
<path d="M240 985 c0 -13 27 -15 180 -15 l180 0 27 -56 c33 -70 103 -142 168
-174 44 -22 63 -25 165 -25 101 0 120 3 159 23 70 38 135 106 165 172 l27 60
190 0 c161 0 189 2 189 15 0 13 -38 15 -280 15 l-279 0 -17 -35 c-25 -53 -86
-85 -161 -85 -51 0 -66 5 -102 31 -23 16 -47 43 -53 60 l-10 29 -274 0 c-237
0 -274 -2 -274 -15z"/>
<path d="M266 614 c-8 -22 -8 -24 6 -21 7 1 19 -18 27 -43 27 -83 54 -140 67
-140 14 0 11 13 -38 152 -23 68 -48 88 -62 52z"/>
<path d="M490 610 c-6 -12 -9 -24 -6 -28 3 -3 6 0 6 6 0 7 3 12 8 12 10 0 45
-88 38 -98 -3 -6 1 -15 8 -22 8 -6 18 -25 21 -41 4 -16 13 -29 21 -29 19 0 19
3 -20 116 -36 102 -55 123 -76 84z"/>
<path d="M662 520 c2 -94 3 -101 5 -37 3 51 8 77 16 77 6 0 47 -35 89 -77 l78
-78 -2 115 c-1 79 -3 93 -5 45 -2 -38 -6 -76 -9 -84 -3 -10 -31 11 -89 69
l-85 85 2 -115z"/>
<path d="M960 603 c-49 -44 -53 -130 -10 -173 15 -15 32 -20 68 -19 26 1 36 3
22 6 -64 10 -69 13 -81 52 -16 54 -4 128 23 142 12 6 38 8 59 5 24 -4 39 -2
39 4 0 5 -20 10 -45 10 -35 0 -51 -6 -75 -27z"/>
<path d="M1150 520 c0 -91 3 -110 15 -110 11 0 15 12 15 50 l0 50 55 0 55 0 0
-50 c0 -38 4 -50 15 -50 12 0 15 19 15 110 0 91 -3 110 -15 110 -12 0 -15 -13
-15 -56 l0 -55 -52 3 -53 3 -3 53 c-2 37 -7 52 -18 52 -11 0 -14 -21 -14 -110z"/>
<path d="M1457 616 c-3 -8 0 -17 8 -20 8 -3 19 -24 26 -48 6 -24 15 -52 20
-63 5 -11 13 -32 19 -47 5 -16 16 -28 24 -28 11 0 6 25 -22 110 -27 82 -41
110 -53 110 -9 0 -19 -6 -22 -14z"/>
<path d="M1620 520 l0 -110 63 2 c49 1 53 2 20 5 l-43 4 0 105 c0 97 -1 104
-20 104 -19 0 -20 -7 -20 -110z"/>
<path d="M466 555 c-9 -26 -7 -32 5 -12 6 10 9 21 6 23 -2 3 -7 -2 -11 -11z"/>
<path d="M213 473 c-13 -31 -21 -59 -18 -61 2 -3 9 8 15 24 6 16 15 39 21 51
6 11 10 26 8 32 -2 6 -14 -15 -26 -46z"/>
<path d="M442 488 c-14 -39 -12 -43 10 -14 9 13 13 28 9 34 -4 7 -11 -1 -19
-20z"/>
<path d="M1398 462 c-22 -60 -17 -64 9 -7 11 25 18 47 14 49 -4 3 -14 -16 -23
-42z"/>
<path d="M512 278 c1 -38 2 -39 5 -10 3 22 8 30 16 25 7 -4 6 0 -2 10 -19 24
-21 22 -19 -25z"/>
<path d="M691 294 c0 -11 3 -14 6 -6 3 7 2 16 -1 19 -3 4 -6 -2 -5 -13z"/>
<path d="M811 284 c0 -11 3 -14 6 -6 3 7 2 16 -1 19 -3 4 -6 -2 -5 -13z"/>
<path d="M1128 273 c6 -2 18 -2 25 0 6 3 1 5 -13 5 -14 0 -19 -2 -12 -5z"/>
<path d="M896 255 c4 -8 8 -15 10 -15 2 0 4 7 4 15 0 8 -4 15 -10 15 -5 0 -7
-7 -4 -15z"/>
<path d="M565 250 c3 -5 8 -10 11 -10 2 0 4 5 4 10 0 6 -5 10 -11 10 -5 0 -7
-4 -4 -10z"/>
</g>
</svg>
